<svg width="31" height="30" viewBox="0 0 31 30" fill="none" xmlns="http://www.w3.org/2000/svg">
<path d="M15.3798 0C6.88246 0 5.71813e-06 6.88245 5.71813e-06 15.3798C-0.00277901 18.6085 1.01162 21.756 2.89918 24.3754C4.78673 26.9948 7.45151 28.9531 10.5152 29.9721C11.2842 30.1059 11.5733 29.6445 11.5733 29.24C11.5733 28.8755 11.5533 27.6652 11.5533 26.3763C7.6899 27.0884 6.69021 25.4351 6.38262 24.5692C6.20882 24.1263 5.45983 22.7621 4.80619 22.396C4.2679 22.1084 3.49891 21.3964 4.78619 21.3779C5.99812 21.3579 6.86247 22.4929 7.15161 22.9543C8.53579 25.2797 10.7459 24.6261 11.6302 24.2232C11.7655 23.2235 12.1685 22.5514 12.6114 22.1669C9.18943 21.7824 5.61363 20.4551 5.61363 14.5723C5.61363 12.899 6.20883 11.5164 7.19006 10.4398C7.03626 10.0553 6.49796 8.47887 7.34385 6.36415C7.34385 6.36415 8.63114 5.95967 11.5733 7.93904C12.8255 7.59245 14.119 7.41808 15.4182 7.42074C16.7255 7.42074 18.0328 7.593 19.2632 7.93904C22.2053 5.93967 23.4926 6.36415 23.4926 6.36415C24.3385 8.47887 23.8002 10.0553 23.6464 10.4398C24.6261 11.5164 25.2228 12.8806 25.2228 14.5723C25.2228 20.4751 21.6286 21.7824 18.2066 22.1669C18.7633 22.6467 19.2447 23.5695 19.2447 25.0121C19.2447 27.0684 19.2247 28.7217 19.2247 29.2416C19.2247 29.6445 19.5139 30.1244 20.2829 29.9706C23.335 28.9388 25.987 26.9763 27.866 24.3591C29.7449 21.7419 30.7564 18.6016 30.758 15.3798C30.758 6.88245 23.8756 0 15.3783 0" fill="#A020F0"/>
</svg>
