<svg width="28" height="30" viewBox="0 0 28 30" fill="none" xmlns="http://www.w3.org/2000/svg">
<g filter="url(#filter0_d_448_870)">
<path d="M8.42895 2.41307C8.55502 2.2626 8.61707 2.06869 8.60178 1.87298C8.58649 1.67727 8.49508 1.49535 8.34716 1.36628C8.19924 1.23722 8.00662 1.17129 7.81064 1.18266C7.61466 1.19402 7.43095 1.28177 7.29895 1.42707L6.00695 2.90707C5.27433 3.74664 4.86018 4.81704 4.83695 5.93107L4.77995 8.65007C4.77791 8.74856 4.79529 8.84649 4.8311 8.93826C4.86691 9.03004 4.92045 9.11386 4.98866 9.18494C5.05686 9.25602 5.1384 9.31298 5.22861 9.35255C5.31883 9.39212 5.41595 9.41353 5.51445 9.41557C5.61294 9.41761 5.71086 9.40022 5.80264 9.36441C5.89441 9.3286 5.97823 9.27507 6.04932 9.20686C6.1204 9.13866 6.17735 9.05712 6.21692 8.9669C6.2565 8.87669 6.27791 8.77956 6.27995 8.68107L6.33595 5.96307C6.35199 5.2008 6.63552 4.46843 7.13695 3.89407L8.42895 2.41307Z" fill="#FAA702"/>
<path fill-rule="evenodd" clip-rule="evenodd" d="M8.23695 7.7C8.30411 6.63014 8.77647 5.62608 9.55787 4.89224C10.3393 4.15839 11.371 3.74993 12.4429 3.75H12.9999V3C12.9999 2.73478 13.1053 2.48043 13.2928 2.29289C13.4804 2.10536 13.7347 2 13.9999 2C14.2652 2 14.5195 2.10536 14.7071 2.29289C14.8946 2.48043 14.9999 2.73478 14.9999 3V3.75H15.5569C16.6289 3.74993 17.6606 4.15839 18.442 4.89224C19.2234 5.62608 19.6958 6.63014 19.7629 7.7L19.9839 11.234C20.0694 12.5812 20.5217 13.8794 21.2919 14.988C21.4513 15.2171 21.5487 15.4835 21.5746 15.7613C21.6005 16.0392 21.5541 16.319 21.4398 16.5736C21.3256 16.8281 21.1474 17.0488 20.9226 17.2142C20.6978 17.3795 20.434 17.4838 20.1569 17.517L16.7499 17.925V19C16.7499 19.7293 16.4602 20.4288 15.9445 20.9445C15.4288 21.4603 14.7293 21.75 13.9999 21.75C13.2706 21.75 12.5711 21.4603 12.0554 20.9445C11.5397 20.4288 11.2499 19.7293 11.2499 19V17.925L7.84295 17.516C7.56604 17.4827 7.30246 17.3784 7.0778 17.2131C6.85313 17.0478 6.67503 16.8273 6.5608 16.5729C6.44657 16.3184 6.40009 16.0388 6.42587 15.7611C6.45165 15.4834 6.54883 15.2171 6.70795 14.988C7.47819 13.8794 7.93052 12.5812 8.01595 11.234L8.23695 7.7ZM12.4429 5.25C11.7525 5.24992 11.088 5.51297 10.5847 5.98561C10.0814 6.45825 9.7772 7.10493 9.73395 7.794L9.51395 11.328C9.41113 12.9487 8.86681 14.5105 7.93995 15.844C7.92842 15.8606 7.92137 15.8798 7.91949 15.8999C7.9176 15.92 7.92095 15.9403 7.9292 15.9587C7.93746 15.9771 7.95034 15.9931 7.96659 16.005C7.98284 16.017 8.00191 16.0246 8.02195 16.027L11.7589 16.476C13.2479 16.654 14.7519 16.654 16.2409 16.476L19.978 16.027C19.998 16.0246 20.0171 16.017 20.0333 16.005C20.0496 15.9931 20.0624 15.9771 20.0707 15.9587C20.0789 15.9403 20.0823 15.92 20.0804 15.8999C20.0785 15.8798 20.0715 15.8606 20.0599 15.844C19.1334 14.5104 18.5895 12.9486 18.4869 11.328L18.266 7.794C18.2227 7.10493 17.9185 6.45825 17.4152 5.98561C16.9119 5.51297 16.2474 5.24992 15.5569 5.25H12.4429ZM13.9999 20.25C13.3099 20.25 12.7499 19.69 12.7499 19V18.25H15.2499V19C15.2499 19.69 14.6899 20.25 13.9999 20.25Z" fill="#FAA702"/>
<path d="M19.643 1.35495C19.4932 1.48573 19.4015 1.67065 19.388 1.86905C19.3745 2.06745 19.4403 2.26309 19.571 2.41295L20.863 3.89295C21.3643 4.46772 21.6475 5.20046 21.663 5.96295L21.72 8.67996C21.7241 8.87887 21.8071 9.068 21.9506 9.20575C22.0942 9.34349 22.2866 9.41857 22.4855 9.41446C22.6844 9.41034 22.8736 9.32738 23.0113 9.18383C23.1491 9.04027 23.2241 8.84787 23.22 8.64895L23.163 5.93095C23.1398 4.81693 22.7256 3.74652 21.993 2.90695L20.701 1.42695C20.5702 1.27714 20.3853 1.1854 20.1869 1.1719C19.9885 1.1584 19.7929 1.22424 19.643 1.35495Z" fill="#FAA702"/>
</g>
<defs>
<filter id="filter0_d_448_870" x="-2" y="0" width="32" height="32" filterUnits="userSpaceOnUse" color-interpolation-filters="sRGB">
<feFlood flood-opacity="0" result="BackgroundImageFix"/>
<feColorMatrix in="SourceAlpha" type="matrix" values="0 0 0 0 0 0 0 0 0 0 0 0 0 0 0 0 0 0 127 0" result="hardAlpha"/>
<feOffset dy="4"/>
<feGaussianBlur stdDeviation="2"/>
<feComposite in2="hardAlpha" operator="out"/>
<feColorMatrix type="matrix" values="0 0 0 0 0 0 0 0 0 0 0 0 0 0 0 0 0 0 0.25 0"/>
<feBlend mode="normal" in2="BackgroundImageFix" result="effect1_dropShadow_448_870"/>
<feBlend mode="normal" in="SourceGraphic" in2="effect1_dropShadow_448_870" result="shape"/>
</filter>
</defs>
</svg>
