<svg width="55" height="55" viewBox="0 0 55 55" fill="none" xmlns="http://www.w3.org/2000/svg">
<path fill-rule="evenodd" clip-rule="evenodd" d="M47.5 0C51.6423 0 55 3.35787 55 7.5V47.5C55 51.6423 51.6423 55 47.5 55H7.5C3.35787 55 0 51.6423 0 47.5V7.5C0 3.35787 3.35787 0 7.5 0H47.5ZM47.5 5C48.8807 5 50 6.1193 50 7.5V47.5C50 48.8807 48.8807 50 47.5 50H35V32.4997H40.1905C41.2665 32.4997 42.2218 31.8113 42.5623 30.7903L43.6697 27.4677C44.0745 26.2535 43.1707 24.9998 41.891 24.9998H35V19.9998C35 18.7498 36.25 17.4998 37.5 17.4998H42.5C43.8807 17.4998 45 16.3805 45 14.9998V13.2848C45 12.4773 44.4843 11.7532 43.7033 11.5472C40.4263 10.6824 37.5 10.6824 37.5 10.6824C31.25 10.6824 27.5 14.9998 27.5 18.7498V24.9998H22.5C21.1193 24.9998 20 26.119 20 27.4998V29.9998C20 31.3805 21.1193 32.4997 22.5 32.4997H27.5V50H7.5C6.1193 50 5 48.8807 5 47.5V7.5C5 6.1193 6.1193 5 7.5 5H47.5Z" fill="#D0DEFF"/>
</svg>
