<svg width="30" height="30" viewBox="0 0 30 30" fill="none" xmlns="http://www.w3.org/2000/svg">
<path d="M3.75 5.11364C3.75 3.75742 4.28876 2.45674 5.24775 1.49775C6.20674 0.538757 7.50742 0 8.86364 0C10.8477 0 13.5491 1.22864 15 4.24091C16.4509 1.22864 19.1509 0 21.1364 0C22.086 0 23.0169 0.26445 23.8248 0.763717C24.6326 1.26299 25.2854 1.97734 25.7101 2.82675C26.1348 3.67615 26.3146 4.62704 26.2293 5.57287C26.1441 6.5187 25.7971 7.42209 25.2273 8.18182H27.6136C28.9309 8.18182 30 9.25091 30 10.5682V13.9773C30 14.9291 29.4423 15.7514 28.6364 16.1345V27.6136C28.6364 28.2465 28.3849 28.8535 27.9374 29.301C27.4899 29.7486 26.8829 30 26.25 30H3.75C3.1171 30 2.51012 29.7486 2.06259 29.301C1.61506 28.8535 1.36364 28.2465 1.36364 27.6136V16.1345C0.557727 15.75 0 14.9291 0 13.9773V10.5682C0 9.25091 1.06909 8.18182 2.38636 8.18182H4.77273C4.10709 7.2976 3.74802 6.2204 3.75 5.11364ZM26.5909 16.3636H16.0227V27.9545H26.25C26.3404 27.9545 26.4271 27.9186 26.4911 27.8547C26.555 27.7908 26.5909 27.704 26.5909 27.6136V16.3636ZM13.9773 27.9545V16.3636H3.40909V27.6136C3.40909 27.8018 3.56182 27.9545 3.75 27.9545H13.9773ZM27.6136 14.3182C27.704 14.3182 27.7908 14.2823 27.8547 14.2183C27.9186 14.1544 27.9545 14.0677 27.9545 13.9773V10.5682C27.9545 10.4778 27.9186 10.3911 27.8547 10.3271C27.7908 10.2632 27.704 10.2273 27.6136 10.2273H16.0227V14.3182H27.6136ZM2.38636 14.3182H13.9773V10.2273H2.38636C2.29595 10.2273 2.20924 10.2632 2.1453 10.3271C2.08137 10.3911 2.04545 10.4778 2.04545 10.5682V13.9773C2.04545 14.1655 2.19818 14.3182 2.38636 14.3182ZM24.2045 5.11364C24.2045 4.2999 23.8813 3.5195 23.3059 2.9441C22.7305 2.36871 21.9501 2.04545 21.1364 2.04545C19.5682 2.04545 16.455 3.41864 16.0636 8.18182H21.1364C21.9501 8.18182 22.7305 7.85856 23.3059 7.28317C23.8813 6.70777 24.2045 5.92737 24.2045 5.11364ZM13.9364 8.18182C13.545 3.41864 10.4318 2.04545 8.86364 2.04545C8.0499 2.04545 7.2695 2.36871 6.6941 2.9441C6.11871 3.5195 5.79545 4.2999 5.79545 5.11364C5.79545 5.92737 6.11871 6.70777 6.6941 7.28317C7.2695 7.85856 8.0499 8.18182 8.86364 8.18182H13.9364Z" fill="#A020F0"/>
</svg>
