<svg width="48" height="48" viewBox="0 0 48 48" fill="none" xmlns="http://www.w3.org/2000/svg">
<g filter="url(#filter0_d_343_756)">
<path d="M44 20C44 31.0457 35.0457 40 24 40C12.9543 40 4 31.0457 4 20C4 8.9543 12.9543 0 24 0C35.0457 0 44 8.9543 44 20Z" fill="#263241"/>
<path d="M30.4332 19.4889C30.4332 19.7159 30.3937 19.9286 30.3148 20.1272C30.2359 20.3258 30.1017 20.5102 29.9122 20.6804L21.1978 28.5098C20.8505 28.8219 20.4164 28.985 19.8954 28.9991C19.3744 29.0133 18.9245 28.8502 18.5456 28.5098C18.1983 28.1978 18.0246 27.8006 18.0246 27.3184C18.0246 26.8361 18.1983 26.439 18.5456 26.1269L25.8866 19.4889L18.5456 12.8509C18.1983 12.5389 18.0167 12.1488 18.0009 11.6808C17.9852 11.2127 18.1667 10.8085 18.5456 10.4681C18.8929 10.156 19.3349 10 19.8717 10C20.4085 10 20.8505 10.156 21.1978 10.4681L29.9122 18.2975C30.1017 18.4677 30.2359 18.6521 30.3148 18.8507C30.3937 19.0492 30.4332 19.262 30.4332 19.4889Z" fill="#F5F5F5"/>
</g>
<defs>
<filter id="filter0_d_343_756" x="0" y="0" width="48" height="48" filterUnits="userSpaceOnUse" color-interpolation-filters="sRGB">
<feFlood flood-opacity="0" result="BackgroundImageFix"/>
<feColorMatrix in="SourceAlpha" type="matrix" values="0 0 0 0 0 0 0 0 0 0 0 0 0 0 0 0 0 0 127 0" result="hardAlpha"/>
<feOffset dy="4"/>
<feGaussianBlur stdDeviation="2"/>
<feComposite in2="hardAlpha" operator="out"/>
<feColorMatrix type="matrix" values="0 0 0 0 0 0 0 0 0 0 0 0 0 0 0 0 0 0 0.25 0"/>
<feBlend mode="normal" in2="BackgroundImageFix" result="effect1_dropShadow_343_756"/>
<feBlend mode="normal" in="SourceGraphic" in2="effect1_dropShadow_343_756" result="shape"/>
</filter>
</defs>
</svg>
