<svg width="24" height="12" viewBox="0 0 24 12" fill="none" xmlns="http://www.w3.org/2000/svg">
<path d="M23.902 10.8675L21.1551 5.9025L23.874 1.14C23.9385 1.02651 23.9738 0.896703 23.9761 0.763858C23.9784 0.631014 23.9476 0.499901 23.8871 0.383934C23.8265 0.267968 23.7382 0.171311 23.6312 0.103852C23.5243 0.0363924 23.4025 0.000552859 23.2784 0H1.40147C1.02977 0 0.673306 0.158036 0.41048 0.43934C0.147654 0.720645 0 1.10218 0 1.5L0 10.5C0 10.8978 0.147654 11.2794 0.41048 11.5607C0.673306 11.842 1.02977 12 1.40147 12H23.2994C23.4231 12 23.5445 11.9649 23.6515 11.8984C23.7584 11.8318 23.847 11.7362 23.9082 11.6212C23.9694 11.5061 24.0011 11.3758 24 11.2435C23.9989 11.1111 23.9651 10.9814 23.902 10.8675ZM7.36471 8.385H6.57989L4.2955 5.13V8.3925H3.50367V3.75H4.2955L6.58689 7.0125V3.75H7.37172L7.36471 8.385ZM11.8004 4.5H9.32676V5.6175H11.5691V6.3675H9.32676V7.575H11.8004V8.325H8.53493V3.75H11.7933L11.8004 4.5ZM17.6094 8.37H16.8176L15.7315 4.9275L14.6453 8.385H13.8605L12.459 3.75H13.3139L14.2389 7.0725L15.304 3.75H16.1589L17.182 7.0725L18.114 3.75H18.9759L17.6094 8.37Z" fill="#BB1100"/>
</svg>
