<svg width="56" height="53" viewBox="0 0 56 53" fill="none" xmlns="http://www.w3.org/2000/svg">
<g filter="url(#filter0_d_278_1719)">
<path d="M33.1176 45V39.2903C38.0491 36.135 42.3824 29.0329 42.3824 20.8694C42.3824 12.735 37.0882 4.91029 27.8235 4.91029C18.5588 4.91029 13.2647 12.735 13.2647 20.8721C13.2647 29.0329 17.5979 36.135 22.5294 39.2903V45H4V39.7059H16.6C11.0571 35.7485 6.64706 29.0885 6.64706 20.8694C6.64706 8.595 15.9118 0 27.8235 0C39.7353 0 49 8.595 49 20.8694C49 29.0885 44.59 35.7485 39.0471 39.7059H51.6471V45H33.1176Z" fill="white"/>
</g>
<defs>
<filter id="filter0_d_278_1719" x="0" y="0" width="55.647" height="53" filterUnits="userSpaceOnUse" color-interpolation-filters="sRGB">
<feFlood flood-opacity="0" result="BackgroundImageFix"/>
<feColorMatrix in="SourceAlpha" type="matrix" values="0 0 0 0 0 0 0 0 0 0 0 0 0 0 0 0 0 0 127 0" result="hardAlpha"/>
<feOffset dy="4"/>
<feGaussianBlur stdDeviation="2"/>
<feComposite in2="hardAlpha" operator="out"/>
<feColorMatrix type="matrix" values="0 0 0 0 0 0 0 0 0 0 0 0 0 0 0 0 0 0 0.25 0"/>
<feBlend mode="normal" in2="BackgroundImageFix" result="effect1_dropShadow_278_1719"/>
<feBlend mode="normal" in="SourceGraphic" in2="effect1_dropShadow_278_1719" result="shape"/>
</filter>
</defs>
</svg>
