<svg width="55" height="55" viewBox="0 0 55 55" fill="none" xmlns="http://www.w3.org/2000/svg">
<path d="M12.535 17.5153C12.8207 15.256 15.7569 12.1854 18.0872 12.5261L18.0835 12.5224C20.3513 12.9533 22.1465 16.8565 23.1588 18.6116C23.876 19.885 23.4103 21.1753 22.7413 21.7197C21.8388 22.4471 20.4275 23.4508 20.7236 24.4585C21.25 26.25 27.5 32.5 30.574 34.2768C31.7375 34.9493 32.5813 33.1755 33.3018 32.2668C33.8253 31.5678 35.1165 31.15 36.387 31.84C38.2845 32.945 40.072 34.2293 41.725 35.675C42.5505 36.365 42.7443 37.3848 42.1723 38.4625C41.1648 40.3608 38.2508 42.864 36.1355 42.3553C32.441 41.467 17.5 35.675 12.7008 18.895C12.4309 18.1012 12.4989 17.8011 12.535 17.5153Z" fill="#D0DEFF"/>
<path fill-rule="evenodd" clip-rule="evenodd" d="M27.5 53.1482C24.441 53.1482 22.7485 52.831 20 51.9403L14.7361 54.4837C11.4116 56.09 7.5 53.7539 7.5 50.162V44.6928C2.11637 39.8418 0 34.2485 0 26.5741C0 11.8976 12.3122 0 27.5 0C42.6877 0 55 11.8976 55 26.5741C55 41.2505 42.6877 53.1482 27.5 53.1482ZM12.5 42.5918L10.9099 41.1589C6.72717 37.3903 5 33.1768 5 26.5741C5 14.5661 15.0736 4.83166 27.5 4.83166C39.9265 4.83166 50 14.5661 50 26.5741C50 38.5822 39.9265 48.3166 27.5 48.3166C25.0357 48.3166 23.88 48.1015 21.5899 47.3594L19.6212 46.7214L12.5 50.162V42.5918Z" fill="#D0DEFF"/>
</svg>
