<svg width="50" height="75" viewBox="0 0 50 75" fill="none" xmlns="http://www.w3.org/2000/svg">
<path d="M0 37.5437C0 36.6479 0.158718 35.808 0.476154 35.0242C0.79359 34.2403 1.33323 33.5125 2.09508 32.8406L37.14 1.93496C38.5367 0.703216 40.2826 0.0593479 42.3777 0.00335931C44.4728 -0.0526292 46.2822 0.591239 47.8059 1.93496C49.2026 3.16671 49.901 4.73439 49.901 6.638C49.901 8.54161 49.2026 10.1093 47.8059 11.341L18.2843 37.5437L47.8059 63.7463C49.2026 64.9781 49.9327 66.5177 49.9962 68.3654C50.0597 70.213 49.3296 71.8086 47.8059 73.1524C46.4092 74.3841 44.6315 75 42.473 75C40.3144 75 38.5367 74.3841 37.14 73.1524L2.09508 42.2467C1.33323 41.5748 0.79359 40.847 0.476154 40.0632C0.158718 39.2793 0 38.4395 0 37.5437Z" fill="#F5F5F5"/>
</svg>
