<svg width="50" height="76" viewBox="0 0 50 76" fill="none" xmlns="http://www.w3.org/2000/svg">
<path d="M50 38.0246C50 38.9204 49.8413 39.7602 49.5238 40.5441C49.2064 41.3279 48.6668 42.0558 47.9049 42.7276L12.86 73.6333C11.4633 74.8651 9.71736 75.5089 7.62228 75.5649C5.5272 75.6209 3.71781 74.977 2.19412 73.6333C0.7974 72.4016 0.0990401 70.8339 0.0990401 68.9303C0.0990401 67.0267 0.7974 65.459 2.19412 64.2272L31.7157 38.0246L2.19412 11.822C0.7974 10.5902 0.0672965 9.05053 0.00380923 7.20291C-0.059678 5.35529 0.670425 3.75962 2.19412 2.41589C3.59084 1.18414 5.36848 0.568266 7.52705 0.568266C9.68561 0.568266 11.4633 1.18414 12.86 2.41589L47.9049 33.3216C48.6668 33.9934 49.2064 34.7213 49.5238 35.5051C49.8413 36.2889 50 37.1288 50 38.0246Z" fill="#F5F5F5"/>
</svg>
