<svg width="26" height="26" viewBox="0 0 26 26" fill="none" xmlns="http://www.w3.org/2000/svg">
<path d="M26 17.4688C26 19.9367 24.6297 21.9375 21.9375 21.9375H4.0625C1.37028 21.9375 0 19.9367 0 17.4688V8.53125C0 6.06328 1.37028 4.0625 4.0625 4.0625H21.9375C24.6297 4.0625 26 6.06328 26 8.53125V17.4688Z" fill="#128807"/>
<path d="M23.2131 13.321L13.0609 20.4548L2.90834 13.321L13.0609 6.18726L23.2131 13.321Z" fill="#F9CB38"/>
<path fill-rule="evenodd" clip-rule="evenodd" d="M17.0666 14.563C16.6043 16.134 15.1576 17.33 13.5196 17.4925C11.3311 17.7115 9.41647 16.3205 8.95091 14.1702C8.81316 13.5383 8.83073 12.8824 9.00209 12.2588C9.06588 12.1897 9.15403 12.1731 9.24178 12.1609C9.88187 12.072 10.5289 12.0439 11.1743 12.0768C11.8629 12.1158 12.5458 12.2113 13.2096 12.399C13.8909 12.5919 14.5507 12.8438 15.1734 13.1785C15.6421 13.4276 16.0898 13.7142 16.512 14.0357C16.655 14.1466 16.8009 14.2555 16.9382 14.3737C16.9995 14.4265 17.0479 14.4834 17.0666 14.563Z" fill="#002776"/>
<path fill-rule="evenodd" clip-rule="evenodd" d="M9.23163 11.6231C9.7561 10.4511 10.6405 9.67067 11.8629 9.30424C14.3248 8.56608 16.8504 10.1931 17.2165 12.7305C17.2733 13.1226 17.2758 13.5158 17.2157 13.9087C17.1535 13.9318 17.1072 13.8989 17.0645 13.8636C16.6184 13.499 16.1423 13.1726 15.6414 12.8878C15.2558 12.6689 14.855 12.4777 14.4422 12.3158C14.3691 12.2869 14.2773 12.2719 14.2521 12.174C14.2785 12.1269 14.3118 12.0858 14.3516 12.0476C14.3658 12.033 14.3865 12.0188 14.3674 11.9944C14.3609 11.9867 14.3475 11.9867 14.3362 11.9879C14.3057 11.9912 14.3098 12.0123 14.311 12.0346C14.3134 12.1074 14.2712 12.1541 14.2155 12.1915C14.1168 12.2138 14.0221 12.1841 13.9421 12.1415C13.713 12.0212 13.4595 11.9802 13.2169 11.9132C12.8387 11.8104 12.4503 11.7523 12.0628 11.6918C11.7535 11.6424 11.4421 11.6069 11.1296 11.5853C10.8453 11.5654 10.5556 11.5683 10.2692 11.5878C9.95678 11.6097 9.64356 11.6316 9.33278 11.669C9.3133 11.6719 9.2934 11.669 9.27547 11.6609C9.25753 11.6528 9.24232 11.6397 9.23163 11.6231Z" fill="#002776"/>
<path fill-rule="evenodd" clip-rule="evenodd" d="M14.2553 12.1488C14.2537 12.1983 14.298 12.1918 14.3248 12.2024C15.3739 12.6105 16.3495 13.1868 17.2132 13.9086C17.1883 14.1315 17.139 14.351 17.0662 14.5631C16.5579 14.1414 16.0375 13.7396 15.4619 13.4114C13.6423 12.3751 11.6939 11.9643 9.61106 12.1845C9.40794 12.2052 9.20481 12.2329 9.00169 12.2576C9.05409 12.0379 9.12072 11.8221 9.23 11.6223C10.7506 11.4171 12.2448 11.5337 13.7109 11.9875C13.8929 12.044 14.0664 12.135 14.2606 12.152L14.2553 12.1476" fill="#FEFEFE"/>
<path fill-rule="evenodd" clip-rule="evenodd" d="M16.1484 14.7671C16.0262 14.7541 16.159 14.904 16.0355 14.9007C15.9278 14.8991 15.9222 14.813 15.8693 14.765C15.91 14.7228 15.9819 14.7142 16.0046 14.6484C16.0201 14.7179 16.0855 14.7325 16.1484 14.7671Z" fill="#D9DFEA"/>
<path fill-rule="evenodd" clip-rule="evenodd" d="M11.5351 15.5187C11.4201 15.5321 11.5164 15.6572 11.4201 15.6593C11.323 15.6613 11.273 15.5894 11.2535 15.5151C11.2466 15.4939 11.3401 15.4468 11.386 15.4119C11.3917 15.4854 11.468 15.4821 11.5351 15.5187Z" fill="#E9ECF3"/>
<path fill-rule="evenodd" clip-rule="evenodd" d="M13.0569 15.2924C12.8972 15.3956 13.026 15.1624 12.9322 15.1851C12.9626 15.1364 13.0488 15.1477 13.0544 15.073C13.0951 15.1152 13.1296 15.164 13.1942 15.1729C13.102 15.1603 13.2023 15.3651 13.0569 15.2924Z" fill="#EDEFF5"/>
<path fill-rule="evenodd" clip-rule="evenodd" d="M9.75813 12.555C9.71994 12.6277 9.69109 12.7089 9.57531 12.6602C9.516 12.6354 9.57938 12.5542 9.50828 12.5464L9.63991 12.4307C9.64884 12.4498 9.65941 12.468 9.66834 12.4871C9.67891 12.5355 9.77519 12.4713 9.75813 12.555Z" fill="#F0F2F6"/>
<path fill-rule="evenodd" clip-rule="evenodd" d="M10.1266 14.3203C10.0661 14.3394 10.1095 14.4987 9.97953 14.4292C9.96653 14.4227 9.90966 14.454 9.92022 14.4357C9.95434 14.3691 9.87797 14.3366 9.88975 14.2833C9.96084 14.3142 9.95678 14.1842 10.0295 14.2191C10.0348 14.2232 10.0348 14.2395 10.0384 14.25C10.0462 14.3004 10.1445 14.2374 10.1266 14.3203Z" fill="#ECEFF4"/>
<path fill-rule="evenodd" clip-rule="evenodd" d="M9.48756 14.7907C9.36285 14.8342 9.45588 14.6834 9.38438 14.6847C9.41769 14.6566 9.45506 14.6042 9.48838 14.6063C9.52819 14.6083 9.56475 14.6574 9.60131 14.6855C9.54688 14.7038 9.60416 14.8512 9.48756 14.7907Z" fill="#D9DFEA"/>
<path fill-rule="evenodd" clip-rule="evenodd" d="M14.3081 16.2285C14.1761 16.2886 14.3045 16.111 14.2163 16.1342C14.2074 16.0664 14.3175 16.1074 14.3037 16.0359L14.4227 16.1314C14.3743 16.1533 14.4227 16.2914 14.3081 16.2285Z" fill="#D8DEEA"/>
<path fill-rule="evenodd" clip-rule="evenodd" d="M15.1531 16.1304C15.0438 16.1759 15.1109 16.0288 15.052 16.0142C15.0918 15.9886 15.1336 15.9614 15.1726 15.935C15.1759 15.9951 15.2583 15.9732 15.2673 16.0264C15.2059 16.0301 15.2697 16.1625 15.1531 16.1304ZM15.9128 15.5836C15.7885 15.6466 15.8803 15.4812 15.8092 15.4881C15.8234 15.4353 15.9051 15.4552 15.91 15.3943L16.0266 15.4816C15.9555 15.4796 16.0428 15.6539 15.9128 15.5836Z" fill="#DCE1EC"/>
<path fill-rule="evenodd" clip-rule="evenodd" d="M10.8806 14.8253C10.7506 14.8988 10.8355 14.7343 10.7754 14.731C10.7815 14.6705 10.8733 14.6965 10.8773 14.6323C10.8895 14.6916 10.9683 14.6746 10.9854 14.7278C10.9078 14.7164 11.0183 14.9029 10.8806 14.8253Z" fill="#D4DAE7"/>
<path fill-rule="evenodd" clip-rule="evenodd" d="M11.4075 13.591C11.334 13.5861 11.4282 13.4703 11.338 13.4776C11.3535 13.4126 11.4229 13.4261 11.4611 13.3923C11.4806 13.4334 11.5359 13.4427 11.5387 13.5016C11.5452 13.6093 11.4498 13.5536 11.4075 13.591Z" fill="#F2F4F7"/>
<path fill-rule="evenodd" clip-rule="evenodd" d="M13.5484 14.4491C13.4359 14.5137 13.4952 14.3695 13.4432 14.3536C13.4786 14.3244 13.5127 14.2947 13.5484 14.2646C13.5509 14.3248 13.6658 14.3114 13.6333 14.3577C13.6138 14.3853 13.6768 14.5116 13.5484 14.4491Z" fill="#E6E9F1"/>
<path fill-rule="evenodd" clip-rule="evenodd" d="M13.0447 14.087C12.9163 14.1 13.0488 13.9834 12.9655 13.9863C12.998 13.9558 13.0292 13.9038 13.0658 13.9005C13.0975 13.8973 13.1341 13.9489 13.1686 13.9773C13.1235 14.0208 13.1304 14.1329 13.0447 14.087Z" fill="#EAEDF3"/>
<path fill-rule="evenodd" clip-rule="evenodd" d="M16.1614 15.0352C16.1878 15.105 16.2398 15.1144 16.2805 15.1392C16.239 15.1859 16.2228 15.2574 16.1367 15.2574C16.0485 15.2582 16.1082 15.1912 16.0883 15.1599C16.0392 15.0819 16.2208 15.1477 16.1614 15.0352Z" fill="#E4E8F0"/>
<path fill-rule="evenodd" clip-rule="evenodd" d="M15.2417 16.4506C15.2108 16.4965 15.2319 16.5404 15.1499 16.542C15.056 16.5436 15.0861 16.475 15.082 16.4539C15.0743 16.4189 15.1279 16.3856 15.1588 16.3925C15.1856 16.3974 15.2376 16.4124 15.2417 16.4506Z" fill="#CED5E4"/>
<path fill-rule="evenodd" clip-rule="evenodd" d="M10.8526 15.1489C10.7855 15.1566 10.8412 15.2444 10.7563 15.2415C10.6787 15.2391 10.6901 15.1867 10.6815 15.155C10.6681 15.1107 10.7335 15.1119 10.7482 15.0786C10.779 15.1001 10.8103 15.1217 10.8526 15.1489Z" fill="#DAE0EB"/>
<path fill-rule="evenodd" clip-rule="evenodd" d="M15.0597 15.6128C15.0885 15.5912 15.1174 15.5713 15.1478 15.551C15.1503 15.5961 15.2474 15.5701 15.2149 15.6278C15.2015 15.651 15.2344 15.7143 15.1503 15.7087C15.0747 15.7034 15.0926 15.6506 15.0597 15.6128Z" fill="#D8DEE9"/>
<path fill-rule="evenodd" clip-rule="evenodd" d="M14.7509 15.7522C14.7363 15.8322 14.6908 15.8452 14.6408 15.8546C14.5559 15.8688 14.6197 15.805 14.6059 15.7806C14.5702 15.7197 14.6603 15.7315 14.6709 15.6917C14.6945 15.7225 14.7485 15.7217 14.7509 15.7522Z" fill="#CBD2E3"/>
<path fill-rule="evenodd" clip-rule="evenodd" d="M14.2756 13.1176C14.2472 13.131 14.285 13.1989 14.224 13.1794C14.1777 13.1635 14.1208 13.1416 14.1249 13.0847C14.1265 13.0628 14.1818 13.0445 14.2127 13.0254C14.2179 13.0664 14.3057 13.053 14.2756 13.1176Z" fill="#D1D8E6"/>
<path fill-rule="evenodd" clip-rule="evenodd" d="M16.5746 14.8995C16.4982 14.9296 16.5328 14.8666 16.5193 14.8483C16.4682 14.7788 16.5693 14.789 16.5746 14.7476C16.6059 14.7683 16.6668 14.7918 16.6644 14.8097C16.6626 14.8329 16.6526 14.8548 16.6361 14.8712C16.6196 14.8877 16.5978 14.8977 16.5746 14.8995Z" fill="#DADFEA"/>
<path fill-rule="evenodd" clip-rule="evenodd" d="M12.6466 14.2795C12.6466 14.3267 12.7416 14.308 12.7095 14.3669C12.6965 14.3909 12.7242 14.455 12.6583 14.4416C12.6084 14.4315 12.558 14.4022 12.5564 14.3527C12.5564 14.3295 12.6141 14.3047 12.6466 14.2795Z" fill="#CAD2E2"/>
<path fill-rule="evenodd" clip-rule="evenodd" d="M13.9466 15.7495C13.9092 15.732 13.9076 15.6828 13.91 15.6593C13.9141 15.628 13.9559 15.5857 13.9917 15.6028C14.0136 15.6134 14.0758 15.6073 14.0607 15.6641C14.0469 15.7186 13.9925 15.7263 13.9466 15.7495Z" fill="#D0D7E5"/>
<path fill-rule="evenodd" clip-rule="evenodd" d="M15.5188 15.6778C15.5204 15.6774 15.5488 15.638 15.5809 15.6372C15.6041 15.6364 15.6276 15.6843 15.6524 15.7112C15.6191 15.7205 15.6475 15.7818 15.5817 15.781C15.5224 15.7798 15.5224 15.753 15.5188 15.6778Z" fill="#EFF2F6"/>
<path fill-rule="evenodd" clip-rule="evenodd" d="M12.9049 14.6492C12.894 14.693 12.894 14.7202 12.855 14.7194C12.8152 14.7186 12.7957 14.704 12.7965 14.6634C12.7965 14.6313 12.8176 14.6089 12.8416 14.611C12.8692 14.613 12.9086 14.6207 12.9049 14.6492Z" fill="#CCD4E3"/>
<path fill-rule="evenodd" clip-rule="evenodd" d="M10.4138 14.0171C10.4333 14.0382 10.4557 14.0549 10.4642 14.0764C10.4715 14.0943 10.4601 14.1215 10.4349 14.1243C10.4069 14.1268 10.3768 14.126 10.3679 14.091C10.3598 14.0569 10.3894 14.0447 10.4138 14.0171Z" fill="#E0E5EE"/>
<path fill-rule="evenodd" clip-rule="evenodd" d="M10.1266 14.3202C10.1156 14.2735 10.0433 14.3031 10.0384 14.2495C10.0539 14.2901 10.1745 14.1995 10.1266 14.3202Z" fill="#7085B1"/>
<path fill-rule="evenodd" clip-rule="evenodd" d="M9.75813 12.5551C9.74919 12.5052 9.67241 12.5446 9.66834 12.4873C9.68988 12.5214 9.79875 12.4406 9.75813 12.5551Z" fill="#5C75A7"/>
<path fill-rule="evenodd" clip-rule="evenodd" d="M14.2634 12.1532C14.2712 12.1223 14.2959 12.0719 14.2862 12.0626C14.1538 11.9448 14.3305 11.9248 14.3569 11.9009C14.4052 11.8542 14.3975 12.0512 14.5251 11.9265C14.4564 12.0788 14.3646 12.1227 14.259 12.1487L14.2634 12.1532Z" fill="#E7EAF2"/>
<path fill-rule="evenodd" clip-rule="evenodd" d="M10.3476 12.027C10.2184 12.0144 10.3334 11.8463 10.3053 11.7488C10.2704 11.6228 10.3622 11.6244 10.4516 11.624C10.5901 11.6232 10.6685 11.6817 10.6685 11.828C10.6681 11.9718 10.6015 12.0287 10.3476 12.027Z" fill="#15A24A"/>
<path fill-rule="evenodd" clip-rule="evenodd" d="M15.2835 12.8385C15.2551 12.9254 15.1499 12.9799 15.132 13.0871C15.1304 13.1013 15.0898 13.0985 15.082 13.0571C15.0495 12.8629 15.0479 12.8633 14.9045 12.9673C14.8931 12.9758 14.8732 12.9835 14.8623 12.9799C14.8411 12.9705 14.8326 12.9494 14.8452 12.9254C14.8927 12.8328 14.9374 12.7377 14.9906 12.648C15.0264 12.5886 15.0698 12.6382 15.1048 12.6553C15.1816 12.6931 15.2762 12.7146 15.2835 12.8385Z" fill="#13A248"/>
<path fill-rule="evenodd" clip-rule="evenodd" d="M15.6471 13.1547C15.5724 13.1848 15.5362 13.1283 15.4883 13.108C15.4558 13.0942 15.4253 13.0812 15.4034 13.1174C15.3794 13.1555 15.4034 13.1775 15.4363 13.1945C15.4615 13.2071 15.4883 13.2169 15.507 13.2368C15.5399 13.2713 15.6431 13.262 15.6012 13.3355C15.5683 13.394 15.5131 13.3258 15.4765 13.3042C15.4135 13.2656 15.2888 13.2445 15.3022 13.1775C15.3229 13.0698 15.3843 12.9528 15.4659 12.8789C15.5313 12.8196 15.6037 12.9317 15.6772 12.9597C15.7089 12.9715 15.7629 12.9821 15.7536 13.032C15.7446 13.0836 15.7064 13.0536 15.6772 13.0467C15.6085 13.0308 15.5419 12.9146 15.4879 12.9951C15.4554 13.043 15.589 13.0629 15.6313 13.1157C15.6378 13.1234 15.6394 13.134 15.6471 13.1547ZM16.5226 13.7292C16.5348 13.8242 16.4962 13.8888 16.3967 13.8726C16.2935 13.8555 16.2151 13.7925 16.1972 13.6796C16.1956 13.6682 16.2094 13.6451 16.2208 13.6418C16.2273 13.6397 16.2342 13.639 16.2411 13.6398C16.2479 13.6406 16.2545 13.643 16.2603 13.6466C16.2662 13.6502 16.2712 13.6551 16.2749 13.6609C16.2787 13.6667 16.2811 13.6732 16.2821 13.68C16.2951 13.7576 16.3357 13.7921 16.4174 13.7938C16.4332 13.6666 16.2037 13.6085 16.3357 13.4765C16.4019 13.4103 16.4828 13.4651 16.5405 13.5183C16.5937 13.5667 16.6587 13.6199 16.5616 13.6889C16.5478 13.6816 16.5291 13.6698 16.5189 13.678C16.4982 13.6918 16.5185 13.7117 16.5226 13.7292Z" fill="#11A147"/>
<path fill-rule="evenodd" clip-rule="evenodd" d="M13.7166 12.5193C13.6683 12.4921 13.6707 12.4661 13.6784 12.4377C13.6939 12.3771 13.6626 12.3454 13.6073 12.3284C13.5521 12.3105 13.5094 12.3129 13.4944 12.382C13.4891 12.4129 13.4729 12.4344 13.4392 12.423C13.4002 12.4088 13.4197 12.3771 13.427 12.354C13.4424 12.3008 13.4562 12.2471 13.4806 12.1964C13.5025 12.1456 13.4871 12.0525 13.5671 12.0586C13.652 12.0647 13.7438 12.085 13.8084 12.1553C13.8373 12.1862 13.8491 12.2394 13.8255 12.2626C13.7568 12.3333 13.7625 12.4332 13.7166 12.5193Z" fill="#0FA046"/>
<path fill-rule="evenodd" clip-rule="evenodd" d="M11.2097 12.0022C11.0784 12.0517 10.9748 12.0229 10.8737 12.0249C10.8278 12.0261 10.8237 11.9916 10.8237 11.9567C10.827 11.9181 10.827 11.8791 10.827 11.8405C10.8318 11.6264 10.9078 11.5715 11.1183 11.6313C11.1418 11.6378 11.1642 11.6418 11.1658 11.6682C11.1658 11.7048 11.1394 11.7113 11.1069 11.7105C11.1024 11.7097 11.0971 11.7084 11.0914 11.7093C11.0285 11.7247 10.9155 11.6536 10.9135 11.7478C10.9111 11.8202 11.0342 11.769 11.0971 11.7933C11.1061 11.797 11.1158 11.8051 11.1296 11.8153C11.0898 11.8872 11.0236 11.847 10.9724 11.8555C10.9419 11.8604 10.9021 11.847 10.8977 11.8965C10.892 11.955 10.9326 11.9522 10.9724 11.9563C11.0403 11.9644 11.1138 11.9388 11.2097 12.0022Z" fill="#0B9F43"/>
<path fill-rule="evenodd" clip-rule="evenodd" d="M10.1311 12.0331C10.0604 12.0177 10.0701 11.977 10.0579 11.9486C10.0368 11.8962 9.99497 11.8962 9.94906 11.8998C9.89666 11.9047 9.86822 11.925 9.87269 11.9831C9.87594 12.0116 9.88731 12.0575 9.8345 12.051C9.789 12.0453 9.802 12.001 9.79956 11.9709C9.7955 11.9218 9.79062 11.8714 9.7955 11.8227C9.802 11.7682 9.75 11.6849 9.82841 11.6654C9.90925 11.6443 10.0027 11.6293 10.0868 11.6695C10.1233 11.687 10.1522 11.7296 10.1388 11.7642C10.1079 11.8511 10.1323 11.9393 10.1311 12.0331Z" fill="#079D3F"/>
<path fill-rule="evenodd" clip-rule="evenodd" d="M9.27347 11.895C9.28647 11.7849 9.33481 11.6955 9.45547 11.6996C9.57125 11.7033 9.633 11.7837 9.633 11.8995C9.633 12.0144 9.57938 12.0937 9.45709 12.0928C9.33278 12.092 9.29053 12.0018 9.27347 11.895Z" fill="#15A24A"/>
<path fill-rule="evenodd" clip-rule="evenodd" d="M17.0073 13.9586C16.9959 14.0679 16.9418 14.1504 16.8171 14.1613C16.7022 14.1707 16.6412 14.1049 16.6323 13.9968C16.6221 13.8875 16.7294 13.7831 16.8387 13.7839C16.9345 13.7848 17.0048 13.8542 17.0073 13.9586Z" fill="#11A147"/>
<path fill-rule="evenodd" clip-rule="evenodd" d="M14.7266 12.6871C14.8184 12.761 14.7071 12.8098 14.703 12.872C14.6266 12.8366 14.5312 12.8508 14.4694 12.7838C14.4036 12.7123 14.4158 12.6315 14.4588 12.5526C14.5064 12.4694 14.5795 12.4336 14.6693 12.4653C14.7513 12.4945 14.8127 12.5498 14.7729 12.6538C14.7099 12.6652 14.6583 12.5823 14.5698 12.638C14.6287 12.6652 14.6993 12.6274 14.7266 12.6871Z" fill="#0C9F43"/>
<path fill-rule="evenodd" clip-rule="evenodd" d="M12.5166 11.8503C12.4629 11.9132 12.4235 11.8889 12.3866 11.8897C12.3508 11.8897 12.3126 11.86 12.2683 11.897C12.3082 11.962 12.4044 11.9201 12.4418 11.9847C12.4365 11.9941 12.4341 12.0067 12.4272 12.0132C12.3736 12.0554 12.2878 11.953 12.2545 12.0375C12.2241 12.1103 12.3041 12.0851 12.3386 12.0973C12.3776 12.1127 12.426 12.107 12.4731 12.1598C12.3638 12.2078 12.2334 12.1854 12.1883 12.1326C12.1172 12.0493 12.1672 11.9015 12.2212 11.8275C12.285 11.7402 12.4016 11.8255 12.5166 11.8503Z" fill="#19A44D"/>
<path fill-rule="evenodd" clip-rule="evenodd" d="M13.2092 12.2036C13.117 12.1939 13.0122 12.1289 12.9858 12.2808C12.985 12.2857 12.9529 12.2926 12.9431 12.2861C12.9322 12.28 12.9261 12.2573 12.9281 12.2443C12.9521 12.148 12.9643 12.0448 13.0069 11.9583C13.0565 11.8608 13.1406 11.9432 13.21 11.9526C13.2929 11.9636 13.3388 12.0139 13.3299 12.1013C13.3218 12.1764 13.2649 12.1967 13.2092 12.2036Z" fill="#0D9F44"/>
<path fill-rule="evenodd" clip-rule="evenodd" d="M14.3081 12.4364C14.2992 12.5587 14.2391 12.6432 14.1168 12.6468C14.0075 12.6509 13.9462 12.5741 13.9486 12.4652C13.9518 12.3474 14.0091 12.2621 14.1363 12.2585C14.2529 12.2544 14.298 12.3328 14.3081 12.4364Z" fill="#0FA046"/>
<path fill-rule="evenodd" clip-rule="evenodd" d="M11.5696 11.9953C11.5562 12.0242 11.5452 12.0652 11.5066 12.0558C11.4396 12.04 11.4697 11.9754 11.4534 11.9332C11.4038 11.8848 11.4168 11.9514 11.4014 11.9636C11.3957 11.9937 11.4095 12.0396 11.3689 12.0457C11.3189 12.0518 11.3307 12.0038 11.3319 11.9754C11.336 11.9161 11.3368 11.8539 11.3531 11.7971C11.3673 11.7483 11.3157 11.6585 11.4128 11.6577C11.4985 11.6573 11.4798 11.7447 11.4908 11.7971C11.5022 11.8572 11.5083 11.8828 11.5574 11.8231C11.6082 11.8097 11.6188 11.8466 11.6305 11.8824C11.637 11.9344 11.6139 11.9705 11.5696 11.9953Z" fill="#0EA044"/>
<path fill-rule="evenodd" clip-rule="evenodd" d="M15.8966 13.4873C15.9266 13.4873 15.9571 13.5271 15.9863 13.493C16.0087 13.4674 15.9888 13.4422 15.9689 13.4215C15.9542 13.4056 15.9388 13.3906 15.925 13.3736C15.8836 13.3236 15.8255 13.2756 15.8828 13.2033C15.9348 13.1371 15.9953 13.1534 16.0554 13.1952C16.0664 13.2163 16.0627 13.2366 16.0513 13.2557C16.0071 13.3252 16.0895 13.3675 16.0879 13.4268C16.1005 13.4824 16.1086 13.5385 16.0473 13.5706C15.9709 13.6112 15.912 13.5738 15.8559 13.5251C15.8498 13.493 15.8616 13.4771 15.8966 13.4873Z" fill="#10A146"/>
<path fill-rule="evenodd" clip-rule="evenodd" d="M14.7266 12.687C14.6953 12.709 14.6323 12.6379 14.6343 12.6915C14.6384 12.7865 14.5909 12.778 14.5466 12.75C14.4869 12.713 14.4836 12.6496 14.5214 12.5911C14.558 12.5339 14.6096 12.5005 14.6721 12.5473C14.7103 12.5753 14.7392 12.6175 14.7721 12.6537L14.7266 12.687Z" fill="#ECF7F0"/>
<path fill-rule="evenodd" clip-rule="evenodd" d="M11.5964 11.899C11.5845 11.8739 11.5715 11.8494 11.5574 11.8255C11.5716 11.7893 11.5846 11.7528 11.6017 11.7178C11.6171 11.6849 11.6439 11.6667 11.6817 11.6788C11.724 11.6931 11.7207 11.7256 11.7183 11.7597C11.7093 11.8592 11.7012 11.9583 11.6935 12.0579C11.6342 12.0957 11.6192 12.0611 11.6094 12.0099C11.6021 11.973 11.6212 11.9332 11.5964 11.899Z" fill="#17A34C"/>
<path fill-rule="evenodd" clip-rule="evenodd" d="M16.0891 13.4264C16.0526 13.3891 16.0136 13.3537 15.9794 13.3139C15.9396 13.2668 15.9551 13.2379 16.0144 13.2302C16.1001 13.2493 16.1525 13.2908 16.1273 13.3891C16.1155 13.4013 16.1025 13.4143 16.0891 13.4264Z" fill="#D7EFE0"/>
<path fill-rule="evenodd" clip-rule="evenodd" d="M16.1273 13.389C16.0879 13.3378 16.0773 13.2647 16.0144 13.2302L16.0566 13.1948C16.1249 13.2432 16.2496 13.2708 16.1273 13.389Z" fill="#2BAB5B"/>
<path fill-rule="evenodd" clip-rule="evenodd" d="M16.5226 13.7291C16.5173 13.7258 16.5104 13.7242 16.508 13.7197C16.4755 13.6596 16.3678 13.6056 16.4044 13.5523C16.4503 13.4882 16.4982 13.5641 16.5234 13.619C16.5348 13.6421 16.5486 13.6649 16.5616 13.6888C16.5482 13.7023 16.5348 13.7157 16.5226 13.7291Z" fill="#E6F5EC"/>
<path fill-rule="evenodd" clip-rule="evenodd" d="M15.8966 13.4874C15.8836 13.5 15.871 13.513 15.8559 13.5256C15.8389 13.5134 15.8153 13.5049 15.8043 13.4874C15.7836 13.448 15.7243 13.3956 15.793 13.3647C15.8507 13.3371 15.8507 13.4106 15.8693 13.4464C15.8771 13.4614 15.8868 13.474 15.8966 13.4874Z" fill="#29AA59"/>
<path fill-rule="evenodd" clip-rule="evenodd" d="M11.5964 11.8989C11.6557 11.9221 11.6244 11.9716 11.6253 12.0086C11.6285 12.0594 11.6464 12.0765 11.6939 12.0586C11.5948 12.1545 11.6074 12.0265 11.5692 11.9981C11.5793 11.9643 11.5871 11.9314 11.5964 11.8989Z" fill="#DDF1E4"/>
<path fill-rule="evenodd" clip-rule="evenodd" d="M11.3994 11.9641V11.8333C11.4554 11.8511 11.4571 11.8905 11.4514 11.9336C11.4343 11.9438 11.4164 11.9535 11.3994 11.9641Z" fill="#6FC690"/>
<path fill-rule="evenodd" clip-rule="evenodd" d="M10.387 11.8298C10.3927 11.7705 10.3643 11.6933 10.4654 11.6998C10.5393 11.7043 10.593 11.734 10.597 11.8185C10.6011 11.9095 10.5479 11.9464 10.4638 11.9525C10.3569 11.9611 10.4004 11.877 10.387 11.8298Z" fill="#F5FBF7"/>
<path fill-rule="evenodd" clip-rule="evenodd" d="M15.0719 12.7236C15.1141 12.7468 15.1787 12.7512 15.1925 12.8138C15.1994 12.8463 15.1714 12.8678 15.1426 12.8585C15.0889 12.8422 15.0178 12.8414 15.0105 12.7659C15.0085 12.7439 15.0321 12.7163 15.0719 12.7236Z" fill="#EFF8F3"/>
<path fill-rule="evenodd" clip-rule="evenodd" d="M13.7544 12.2239C13.7434 12.2661 13.7138 12.2807 13.6797 12.2681C13.6337 12.2515 13.5598 12.2698 13.559 12.1893C13.5574 12.1475 13.5858 12.1349 13.624 12.1475C13.6744 12.1637 13.7353 12.1617 13.7544 12.2239Z" fill="#DEF2E5"/>
<path fill-rule="evenodd" clip-rule="evenodd" d="M9.95922 11.7239C9.99903 11.7288 10.062 11.7076 10.0579 11.7755C10.0539 11.8348 9.99375 11.8254 9.95069 11.8263C9.91616 11.8275 9.86659 11.8453 9.86334 11.7832C9.86091 11.7093 9.91859 11.7324 9.95922 11.7239Z" fill="#F3FAF5"/>
<path fill-rule="evenodd" clip-rule="evenodd" d="M9.44531 11.7803C9.51885 11.7851 9.55541 11.829 9.55825 11.8981C9.56231 11.9598 9.53185 12.0126 9.46847 12.0183C9.39535 12.0252 9.36244 11.9696 9.35838 11.9017C9.35431 11.8392 9.37869 11.7937 9.44531 11.7803Z" fill="#F3FAF6"/>
<path fill-rule="evenodd" clip-rule="evenodd" d="M16.9264 13.9728C16.9158 14.0403 16.8752 14.0878 16.7968 14.0878C16.7338 14.087 16.7103 14.0411 16.7168 13.9854C16.7229 13.9099 16.768 13.8611 16.8448 13.8623C16.9053 13.864 16.9288 13.9074 16.9264 13.9728Z" fill="#F9FCFA"/>
<path fill-rule="evenodd" clip-rule="evenodd" d="M13.1137 12.0039C13.1548 12.0291 13.2373 12.0031 13.249 12.0843C13.2527 12.1152 13.2186 12.131 13.1913 12.1249C13.1381 12.1132 13.0638 12.1323 13.0573 12.0465C13.0561 12.0201 13.0678 11.9917 13.1137 12.0039Z" fill="#E7F5EC"/>
<path fill-rule="evenodd" clip-rule="evenodd" d="M14.2269 12.4462C14.2192 12.5165 14.1846 12.5656 14.1135 12.5656C14.0437 12.5664 14.0189 12.5177 14.0221 12.4535C14.0278 12.3828 14.068 12.3357 14.1367 12.3328C14.2049 12.3304 14.2269 12.3848 14.2269 12.4462Z" fill="#F5FBF7"/>
</svg>
